<svg width="209" height="98" viewBox="0 0 209 98" fill="none" xmlns="http://www.w3.org/2000/svg">
<path d="M0 0H4.86047V62.7812H0V0Z" fill="#CB3E1F"/>
<path d="M0 0H84.2481V4.59375H0V0Z" fill="#DA6A53"/>
<path d="M204.14 35.2188H209V98H204.14V35.2188Z" fill="#CB3E1F"/>
<path d="M123.132 93.4062H209V98H123.132V93.4062Z" fill="#DA6A53"/>
<path d="M72.6478 7.59499C75.3048 7.41125 76.6333 8.33 76.6333 10.3512C76.6333 11.3925 76.2769 12.5869 75.564 13.9344C74.916 15.2206 74.1707 16.3537 73.3282 17.3337C72.4857 18.3137 71.6757 18.9875 70.898 19.355C70.1851 19.6612 69.375 19.8144 68.4678 19.8144L65.7459 19.7225C64.8386 19.7225 64.1257 19.7837 63.6073 19.9062C60.4318 20.5187 57.0619 21.315 53.4975 22.295C53.4327 22.295 52.7198 22.4481 51.3589 22.7544C51.0997 22.8156 50.4516 22.9687 49.4147 23.2137C48.4426 23.3975 47.5678 23.6119 46.7901 23.8569C46.0772 24.1019 45.5588 24.4081 45.2347 24.7756C44.5867 25.3881 44.2626 26.3375 44.2626 27.6237C44.2626 28.8487 44.5219 30.3187 45.0403 32.0337C45.6236 33.6875 45.9476 34.6675 46.0124 34.9737C46.7253 36.8725 47.1141 38.22 47.1789 39.0162C49.7712 38.1587 52.8495 37.3012 56.4138 36.4437C59.9781 35.525 63.1212 35.0656 65.8431 35.0656C69.6667 35.0656 71.5785 36.1375 71.5785 38.2812C71.5785 39.2612 71.1572 40.5169 70.3147 42.0481C69.4074 43.5181 68.3381 44.6206 67.1068 45.3556C65.8755 46.0906 64.6118 46.5806 63.3157 46.8256C62.0195 47.0094 60.2698 47.1931 58.0664 47.3769C57.6775 47.3769 57.0943 47.4075 56.3166 47.4687C55.6037 47.53 54.9881 47.5912 54.4696 47.6525C54.1456 47.7137 53.4327 47.8056 52.331 47.9281C51.2293 47.9894 50.2896 48.1731 49.5119 48.4794C48.5398 48.8469 47.9242 49.1225 47.665 49.3063C47.4705 49.4287 47.3733 49.7044 47.3733 50.1331C47.3733 50.5006 47.3409 51.0519 47.2761 51.7869C47.1465 53.5019 46.8225 56.0744 46.304 59.5044L46.0124 61.4337C45.3643 65.5987 44.6839 69.2125 43.971 72.275C43.2581 75.3375 42.2536 78.2775 40.9575 81.095C40.0502 82.9325 38.7541 84.8619 37.0692 86.8831C35.449 88.9044 33.8288 89.915 32.2087 89.915C31.755 89.915 31.3338 89.8231 30.945 89.6394C29.7785 89.0881 29.1952 87.4037 29.1952 84.5862C29.1952 82.7487 29.5192 79.9313 30.1673 76.1338L30.4589 74.0206L32.0143 60.3313C32.4031 57.6363 32.6623 55.615 32.7919 54.2675L31.1394 55.1862C28.1583 57.0237 26.0197 57.9425 24.7236 57.9425C24.2051 57.9425 23.7839 57.82 23.4598 57.575C22.8118 57.0237 22.4878 56.3806 22.4878 55.6456C22.4878 54.3594 23.2006 52.9506 24.6264 51.4194C26.0521 49.8881 27.4454 48.6631 28.8064 47.7444C29.3896 47.3156 30.0377 46.9481 30.7505 46.6419C31.9819 45.9069 32.8567 45.2331 33.3752 44.6206C33.9585 43.9469 34.2501 42.9056 34.2501 41.4969C34.2501 40.4556 34.0233 39.2919 33.5696 38.0056C33.2456 37.1481 32.7595 36.3212 32.1115 35.525C31.4634 34.6675 31.0746 34.1469 30.945 33.9631C30.0377 32.7381 29.3572 31.7581 28.9036 31.0231C28.4499 30.2269 28.2231 29.3694 28.2231 28.4506C28.2231 27.7156 28.4175 26.8887 28.8064 25.97C29.7136 24.01 31.2366 22.3562 33.3752 21.0087C35.5786 19.6612 38.3977 18.2831 41.8324 16.8744L44.4571 15.7719C49.7064 13.4444 54.5992 11.5762 59.1357 10.1675C63.7369 8.69749 68.2409 7.83999 72.6478 7.59499Z" fill="#CB3E1F"/>
<path d="M92.2757 54.635C93.3126 55.0025 94.4791 55.5231 95.7752 56.1969C93.831 49.5819 92.3405 43.9469 91.3036 39.2919C88.7761 44.0694 85.4386 49.8881 81.291 56.7481C80.967 57.4219 80.4161 58.3712 79.6385 59.5962C82.2307 55.7987 85.1794 53.9 88.4845 53.9C89.7806 53.9 91.0444 54.145 92.2757 54.635ZM107.829 41.5887C110.486 50.1025 113.629 58.0344 117.258 65.3844L118.328 67.4056C119.235 68.8756 119.916 70.1312 120.369 71.1725C120.823 72.1525 121.05 73.1631 121.05 74.2044C121.05 75.7969 120.337 77.4506 118.911 79.1656C117.485 80.8194 115.93 82.0444 114.245 82.8406C113.208 83.3919 112.106 83.6675 110.94 83.6675C108.996 83.6675 107.051 83.1163 105.107 82.0138C103.228 80.85 100.96 79.1962 98.3027 77.0525C96.4233 75.5825 94.9975 74.5412 94.0254 73.9287C93.3774 73.5 92.0165 72.8262 89.9427 71.9075C86.3135 70.1925 83.4944 68.6612 81.4855 67.3137C79.5413 65.9662 78.5692 64.3738 78.5692 62.5363C78.5692 62.0463 78.796 61.3113 79.2496 60.3313C78.0183 62.4138 76.301 65.5987 74.0975 69.8862C71.3757 75.0925 69.8203 78.0019 69.4315 78.6144C68.6538 79.9619 67.3901 81.4625 65.6403 83.1162C63.8906 84.7087 62.2704 85.505 60.7799 85.505C60.0022 85.505 59.3217 85.2294 58.7385 84.6781C58.2848 84.2494 58.058 83.5756 58.058 82.6569C58.058 80.0844 60.1318 75.5213 64.2794 68.9675C64.5386 68.4775 64.9599 67.7731 65.5431 66.8544L67.6817 62.9956C72.0886 55.1556 75.2965 49.245 77.3054 45.2637C78.472 42.9362 80.1569 39.445 82.3603 34.79L85.8599 27.3481C87.2856 24.4694 88.7113 22.0806 90.1371 20.1819C91.5628 18.2219 93.345 16.7212 95.4836 15.68C96.5853 15.1287 97.6222 14.8531 98.5943 14.8531C99.8904 14.8531 100.83 15.435 101.413 16.5987C101.997 17.7012 102.515 19.355 102.969 21.56C104.135 27.8687 105.755 34.545 107.829 41.5887Z" fill="#CB3E1F"/>
<path d="M176.625 51.2356C177.273 49.7656 177.597 48.3875 177.597 47.1012C177.597 43.12 174.389 41.1294 167.974 41.1294C164.993 41.1294 161.752 41.5581 158.253 42.4156C154.818 43.2119 152.096 44.1 150.087 45.08C146.588 46.7337 143.995 48.3569 142.31 49.9494C140.69 51.4806 139.848 53.655 139.783 56.4725C139.718 60.76 139.589 64.5269 139.394 67.7731C139.2 70.9581 138.843 74.1125 138.325 77.2362C146.166 74.48 153.425 70.9887 160.1 66.7625C164.507 64.0062 168.071 61.495 170.793 59.2288C173.515 56.9013 175.459 54.2369 176.625 51.2356ZM140.949 31.2987C140.949 32.2175 140.885 33.7181 140.755 35.8006C140.625 37.0256 140.561 38.0056 140.561 38.7406L144.741 33.5956C147.074 30.7169 148.856 28.4812 150.087 26.8887C151.318 25.235 152.453 23.4587 153.489 21.56C151.221 22.05 149.212 22.6012 147.462 23.2137C145.713 23.765 144.125 24.5 142.699 25.4187C141.922 25.97 141.371 26.4294 141.047 26.7969C140.787 27.1644 140.658 27.5625 140.658 27.9912C140.658 28.3587 140.69 28.8487 140.755 29.4612C140.885 30.0737 140.949 30.6862 140.949 31.2987ZM177.792 28.8181C181.291 29.3694 183.851 30.6556 185.471 32.6769C187.156 34.6981 187.999 37.2094 187.999 40.2106C187.999 42.4156 187.513 44.9881 186.541 47.9281C184.013 55.4619 178.245 62.965 169.237 70.4375C162.173 76.1337 154.332 81.0644 145.713 85.2294C142.926 86.6381 139.751 88.0469 136.186 89.4556C132.622 90.8644 129.576 91.5687 127.049 91.5687C125.104 91.5687 123.808 91.0175 123.16 89.915C122.901 89.4863 122.771 88.9962 122.771 88.445C122.771 87.71 122.966 87.0362 123.355 86.4237C123.743 85.75 124.359 84.8312 125.202 83.6675C126.174 82.4425 126.789 81.5238 127.049 80.9113C127.632 79.3188 127.923 77.1138 127.923 74.2963V72.0912C127.923 71.6012 127.891 71.0194 127.826 70.3456C127.826 69.6719 127.859 68.9369 127.923 68.1406C128.442 61.5256 128.798 56.5644 128.993 53.2569C128.993 52.3994 129.025 51.6644 129.09 51.0519C129.155 50.3781 129.22 49.7963 129.284 49.3063C129.349 48.6937 129.414 47.9281 129.479 47.0094C129.544 46.0906 129.576 45.0187 129.576 43.7937C129.576 42.5075 129.479 41.2825 129.284 40.1187C129.025 38.5262 128.636 37.3319 128.118 36.5356C128.053 36.3519 127.729 36.015 127.146 35.525C126.627 34.9737 126.336 34.5756 126.271 34.3306C126.206 34.0856 126.174 33.7487 126.174 33.32C126.174 31.2987 127.405 28.4506 129.868 24.7756C130.58 23.7344 131.293 22.8462 132.006 22.1112C132.719 21.3762 133.497 20.8556 134.339 20.5494C134.598 20.4269 135.02 20.3656 135.603 20.3656C135.797 20.3656 136.057 20.3656 136.381 20.3656C136.769 20.3656 137.061 20.335 137.255 20.2737C137.968 20.0287 138.681 19.5694 139.394 18.8956C140.172 18.2219 140.625 17.8237 140.755 17.7012C141.468 17.0275 142.148 16.4762 142.796 16.0475C144.87 14.6387 147.592 13.1687 150.962 11.6375C154.332 10.1062 157.216 9.34062 159.614 9.34062C161.947 9.34062 163.437 10.2287 164.085 12.005C164.344 12.6787 164.474 13.4137 164.474 14.21C164.474 16.5375 163.632 19.0794 161.947 21.8356C160.262 24.5306 158.058 27.5625 155.336 30.9312C154.948 31.4825 154.3 32.34 153.392 33.5037C160.391 30.135 167.002 28.4506 173.223 28.4506C174.908 28.4506 176.431 28.5731 177.792 28.8181Z" fill="#CB3E1F"/>
<path d="M69.4074 7.59499C72.0645 7.41125 73.393 8.33 73.393 10.3512C73.393 11.3925 73.0366 12.5869 72.3237 13.9344C71.6757 15.2206 70.9304 16.3537 70.0879 17.3337C69.2454 18.3137 68.4354 18.9875 67.6577 19.355C66.9448 19.6612 66.1347 19.8144 65.2274 19.8144L62.5056 19.7225C61.5983 19.7225 60.8854 19.7837 60.367 19.9062C57.1915 20.5187 53.8216 21.315 50.2572 22.295C50.1924 22.295 49.4795 22.4481 48.1186 22.7544C47.8594 22.8156 47.2113 22.9687 46.1744 23.2137C45.2023 23.3975 44.3274 23.6119 43.5498 23.8569C42.8369 24.1019 42.3185 24.4081 41.9944 24.7756C41.3464 25.3881 41.0223 26.3375 41.0223 27.6237C41.0223 28.8487 41.2816 30.3187 41.8 32.0337C42.3833 33.6875 42.7073 34.6675 42.7721 34.9737C43.485 36.8725 43.8738 38.22 43.9386 39.0162C46.5309 38.1587 49.6092 37.3012 53.1735 36.4437C56.7378 35.525 59.8809 35.0656 62.6028 35.0656C66.4264 35.0656 68.3381 36.1375 68.3381 38.2812C68.3381 39.2612 67.9169 40.5169 67.0744 42.0481C66.1671 43.5181 65.0978 44.6206 63.8665 45.3556C62.6352 46.0906 61.3715 46.5806 60.0754 46.8256C58.7792 47.0094 57.0295 47.1931 54.826 47.3769C54.4372 47.3769 53.854 47.4075 53.0763 47.4687C52.3634 47.53 51.7478 47.5912 51.2293 47.6525C50.9053 47.7137 50.1924 47.8056 49.0907 47.9281C47.989 47.9894 47.0493 48.1731 46.2716 48.4794C45.2995 48.8469 44.6839 49.1225 44.4247 49.3063C44.2302 49.4287 44.133 49.7044 44.133 50.1331C44.133 50.5006 44.1006 51.0519 44.0358 51.7869C43.9062 53.5019 43.5822 56.0744 43.0637 59.5044L42.7721 61.4337C42.124 65.5987 41.4436 69.2125 40.7307 72.275C40.0178 75.3375 39.0133 78.2775 37.7172 81.095C36.8099 82.9325 35.5138 84.8619 33.8288 86.8831C32.2087 88.9044 30.5885 89.915 28.9684 89.915C28.5147 89.915 28.0935 89.8231 27.7047 89.6394C26.5381 89.0881 25.9549 87.4037 25.9549 84.5862C25.9549 82.7487 26.2789 79.9313 26.927 76.1338L27.2186 74.0206L28.774 60.3313C29.1628 57.6363 29.422 55.615 29.5516 54.2675L27.8991 55.1862C24.918 57.0237 22.7794 57.9425 21.4833 57.9425C20.9648 57.9425 20.5436 57.82 20.2195 57.575C19.5715 57.0237 19.2474 56.3806 19.2474 55.6456C19.2474 54.3594 19.9603 52.9506 21.386 51.4194C22.8118 49.8881 24.2051 48.6631 25.566 47.7444C26.1493 47.3156 26.7974 46.9481 27.5102 46.6419C28.7416 45.9069 29.6164 45.2331 30.1349 44.6206C30.7181 43.9469 31.0098 42.9056 31.0098 41.4969C31.0098 40.4556 30.7829 39.2919 30.3293 38.0056C30.0053 37.1481 29.5192 36.3212 28.8712 35.525C28.2231 34.6675 27.8343 34.1469 27.7047 33.9631C26.7974 32.7381 26.1169 31.7581 25.6633 31.0231C25.2096 30.2269 24.9828 29.3694 24.9828 28.4506C24.9828 27.7156 25.1772 26.8887 25.566 25.97C26.4733 24.01 27.9963 22.3562 30.1349 21.0087C32.3383 19.6612 35.1574 18.2831 38.5921 16.8744L41.2167 15.7719C46.466 13.4444 51.3589 11.5762 55.8954 10.1675C60.4966 8.69749 65.0006 7.83999 69.4074 7.59499Z" fill="#E27400"/>
<path d="M89.0354 54.635C90.0723 55.0025 91.2388 55.5231 92.5349 56.1969C90.5907 49.5819 89.1002 43.9469 88.0633 39.2919C85.5358 44.0694 82.1983 49.8881 78.0507 56.7481C77.7267 57.4219 77.1758 58.3712 76.3982 59.5962C78.9904 55.7987 81.9391 53.9 85.2442 53.9C86.5403 53.9 87.8041 54.145 89.0354 54.635ZM104.589 41.5887C107.246 50.1025 110.389 58.0344 114.018 65.3844L115.087 67.4056C115.995 68.8756 116.675 70.1312 117.129 71.1725C117.583 72.1525 117.809 73.1631 117.809 74.2044C117.809 75.7969 117.096 77.4506 115.671 79.1656C114.245 80.8194 112.69 82.0444 111.005 82.8406C109.968 83.3919 108.866 83.6675 107.7 83.6675C105.755 83.6675 103.811 83.1163 101.867 82.0138C99.9876 80.85 97.7194 79.1962 95.0623 77.0525C93.183 75.5825 91.7572 74.5412 90.7851 73.9287C90.1371 73.5 88.7762 72.8262 86.7024 71.9075C83.0732 70.1925 80.2541 68.6612 78.2451 67.3137C76.301 65.9662 75.3289 64.3738 75.3289 62.5363C75.3289 62.0463 75.5557 61.3113 76.0093 60.3313C74.778 62.4138 73.0606 65.5987 70.8572 69.8862C68.1354 75.0925 66.58 78.0019 66.1912 78.6144C65.4135 79.9619 64.1498 81.4625 62.4 83.1162C60.6503 84.7087 59.0301 85.505 57.5396 85.505C56.7619 85.505 56.0814 85.2294 55.4982 84.6781C55.0445 84.2494 54.8177 83.5756 54.8177 82.6569C54.8177 80.0844 56.8915 75.5213 61.0391 68.9675C61.2983 68.4775 61.7196 67.7731 62.3028 66.8544L64.4414 62.9956C68.8482 55.1556 72.0561 49.245 74.0651 45.2637C75.2316 42.9362 76.9166 39.445 79.12 34.79L82.6196 27.3481C84.0453 24.4694 85.471 22.0806 86.8968 20.1819C88.3225 18.2219 90.1047 16.7212 92.2433 15.68C93.345 15.1287 94.3819 14.8531 95.354 14.8531C96.6501 14.8531 97.5898 15.435 98.173 16.5987C98.7563 17.7012 99.2748 19.355 99.7284 21.56C100.895 27.8687 102.515 34.545 104.589 41.5887Z" fill="#E27400"/>
<path d="M173.385 51.2356C174.033 49.7656 174.357 48.3875 174.357 47.1012C174.357 43.12 171.149 41.1294 164.733 41.1294C161.752 41.1294 158.512 41.5581 155.012 42.4156C151.578 43.2119 148.856 44.1 146.847 45.08C143.347 46.7337 140.755 48.3569 139.07 49.9494C137.45 51.4806 136.607 53.655 136.543 56.4725C136.478 60.76 136.348 64.5269 136.154 67.7731C135.959 70.9581 135.603 74.1125 135.084 77.2362C142.926 74.48 150.184 70.9887 156.859 66.7625C161.266 64.0062 164.831 61.495 167.552 59.2288C170.274 56.9013 172.218 54.2369 173.385 51.2356ZM137.709 31.2987C137.709 32.2175 137.644 33.7181 137.515 35.8006C137.385 37.0256 137.32 38.0056 137.32 38.7406L141.5 33.5956C143.833 30.7169 145.615 28.4812 146.847 26.8887C148.078 25.235 149.212 23.4587 150.249 21.56C147.981 22.05 145.972 22.6012 144.222 23.2137C142.472 23.765 140.885 24.5 139.459 25.4187C138.681 25.97 138.13 26.4294 137.806 26.7969C137.547 27.1644 137.418 27.5625 137.418 27.9912C137.418 28.3587 137.45 28.8487 137.515 29.4612C137.644 30.0737 137.709 30.6862 137.709 31.2987ZM174.551 28.8181C178.051 29.3694 180.611 30.6556 182.231 32.6769C183.916 34.6981 184.758 37.2094 184.758 40.2106C184.758 42.4156 184.272 44.9881 183.3 47.9281C180.773 55.4619 175.005 62.965 165.997 70.4375C158.933 76.1337 151.092 81.0644 142.472 85.2294C139.686 86.6381 136.51 88.0469 132.946 89.4556C129.382 90.8644 126.336 91.5687 123.808 91.5687C121.864 91.5687 120.568 91.0175 119.92 89.915C119.661 89.4863 119.531 88.9962 119.531 88.445C119.531 87.71 119.725 87.0362 120.114 86.4237C120.503 85.75 121.119 84.8312 121.961 83.6675C122.933 82.4425 123.549 81.5238 123.808 80.9113C124.391 79.3188 124.683 77.1138 124.683 74.2963V72.0912C124.683 71.6012 124.651 71.0194 124.586 70.3456C124.586 69.6719 124.618 68.9369 124.683 68.1406C125.202 61.5256 125.558 56.5644 125.752 53.2569C125.752 52.3994 125.785 51.6644 125.85 51.0519C125.914 50.3781 125.979 49.7963 126.044 49.3063C126.109 48.6937 126.174 47.9281 126.238 47.0094C126.303 46.0906 126.336 45.0187 126.336 43.7937C126.336 42.5075 126.238 41.2825 126.044 40.1187C125.785 38.5262 125.396 37.3319 124.878 36.5356C124.813 36.3519 124.489 36.015 123.905 35.525C123.387 34.9737 123.095 34.5756 123.031 34.3306C122.966 34.0856 122.933 33.7487 122.933 33.32C122.933 31.2987 124.165 28.4506 126.627 24.7756C127.34 23.7344 128.053 22.8462 128.766 22.1112C129.479 21.3762 130.256 20.8556 131.099 20.5494C131.358 20.4269 131.779 20.3656 132.363 20.3656C132.557 20.3656 132.816 20.3656 133.14 20.3656C133.529 20.3656 133.821 20.335 134.015 20.2737C134.728 20.0287 135.441 19.5694 136.154 18.8956C136.931 18.2219 137.385 17.8237 137.515 17.7012C138.228 17.0275 138.908 16.4762 139.556 16.0475C141.63 14.6387 144.352 13.1687 147.722 11.6375C151.092 10.1062 153.975 9.34062 156.373 9.34062C158.706 9.34062 160.197 10.2287 160.845 12.005C161.104 12.6787 161.234 13.4137 161.234 14.21C161.234 16.5375 160.391 19.0794 158.706 21.8356C157.021 24.5306 154.818 27.5625 152.096 30.9312C151.707 31.4825 151.059 32.34 150.152 33.5037C157.151 30.135 163.761 28.4506 169.983 28.4506C171.668 28.4506 173.191 28.5731 174.551 28.8181Z" fill="#E27400"/>
</svg>
